<svg xmlns="http://www.w3.org/2000/svg" width="241.061" height="59.896" viewBox="0 0 241.061 59.896"><g transform="translate(-179.999 -991.576)"><g transform="translate(206.413 943.883)"><path d="M49.992,76.382c-.343-3-2.232-4.463-5.7-4.463-3.056,0-5.014,1.238-5.014,3.127,0,1.6,1.2,2.541,4.121,3.16l3.71.782c2.713.586,4.087,1.14,5.186,2.085a5.3,5.3,0,0,1,1.854,4.17c0,4.1-3.5,6.645-9.067,6.645-5.941,0-9.513-2.867-9.994-8.079h3.4c.344,3.453,2.748,5.375,6.7,5.375,3.3,0,5.633-1.531,5.633-3.714,0-1.629-1.237-2.7-3.641-3.258L42.024,81.04c-4.19-.944-6.079-2.7-6.079-5.635,0-3.811,3.332-6.222,8.586-6.222s8.071,2.313,8.792,7.2Z" transform="translate(0 -11.24)"/><path d="M87.308,91.935H84.046V70.207h3.262Z" transform="translate(-25.608 -11.776)"/><path d="M108.059,91.935H104.8V72.91H97.653v-2.7H115.2v2.7h-7.144Z" transform="translate(-32.725 -11.776)"/><path d="M154.331,76.48a5.9,5.9,0,0,0-6.148-4.594c-4.4,0-7.281,3.388-7.281,8.5,0,5.245,2.885,8.8,7.177,8.8,3.572,0,6.045-2.28,6.56-6.059h3.3a9.562,9.562,0,0,1-9.925,8.763,9.645,9.645,0,0,1-8.037-3.714,12.339,12.339,0,0,1-2.507-7.72c0-6.613,4.43-11.271,10.716-11.271,4.877,0,8.345,2.606,9.341,7Z" transform="translate(-53.549 -11.24)"/><path d="M257.321,91.935,247.945,78.22c-1.134-1.694-1.821-2.768-2.37-3.746.069.977.1,3.029.1,4.1V91.935h-3.091V70.207h3.332l9,13.226a50.867,50.867,0,0,1,2.713,4.5c-.069-1.206-.1-2.541-.1-4.072V70.337h3.091v21.6Z" transform="translate(-108.531 -11.776)"/><g transform="translate(107.019 47.693)"><path d="M216.192,48.725a5.461,5.461,0,0,1,4.233-.933,7.155,7.155,0,0,1-2.319,4.228,7.156,7.156,0,0,1-4.687,1.13,23.77,23.77,0,0,0,1.2-2.087A7.016,7.016,0,0,1,216.192,48.725Z" transform="translate(-200.294 -47.693)"/><path d="M207.329,54.021a2.551,2.551,0,0,0-1.977-.436,2.785,2.785,0,0,0,3.272,2.5,11.178,11.178,0,0,1-.56-.974A3.273,3.273,0,0,0,207.329,54.021Z" transform="translate(-196.074 -50.75)"/><path d="M209,63.791c.264,0,.528.012.792.029a6.138,6.138,0,0,1,.533-4.128,6.922,6.922,0,0,0-2.2,4.134C208.416,63.8,208.708,63.791,209,63.791Z" transform="translate(-197.525 -53.969)"/><path d="M197.374,69.272a11.474,11.474,0,1,0,11.474,11.475A11.474,11.474,0,0,0,197.374,69.272Zm4.689,16.163-4.689-3.227-4.688,3.227,3.227-4.688-3.227-4.689,4.688,3.227,4.689-3.227-3.227,4.689Z" transform="translate(-185.9 -58.98)"/></g></g><path d="M-119.405-2.777a2.352,2.352,0,0,0,.346,1.189,2.291,2.291,0,0,0,2.045.855,3.62,3.62,0,0,0,1.2-.187,1.328,1.328,0,0,0,1.043-1.3,1.123,1.123,0,0,0-.439-1,4.437,4.437,0,0,0-1.395-.51L-117.776-4a5.28,5.28,0,0,1-1.617-.568,1.8,1.8,0,0,1-.82-1.611,2.481,2.481,0,0,1,.8-1.9,3.221,3.221,0,0,1,2.273-.744,3.949,3.949,0,0,1,2.3.653,2.358,2.358,0,0,1,.946,2.089h-1.1a2.157,2.157,0,0,0-.375-1.061,2.179,2.179,0,0,0-1.811-.674,2.094,2.094,0,0,0-1.482.434,1.357,1.357,0,0,0-.451,1.008.984.984,0,0,0,.527.926,7.739,7.739,0,0,0,1.564.469l1.207.275a3.7,3.7,0,0,1,1.348.545,2.04,2.04,0,0,1,.82,1.752,2.187,2.187,0,0,1-1.04,2.045A4.658,4.658,0,0,1-117.1.252a3.614,3.614,0,0,1-2.514-.82,2.768,2.768,0,0,1-.891-2.209Zm7.313-5.25h1.066v1.752h1v.861h-1v4.1a.443.443,0,0,0,.223.439.946.946,0,0,0,.41.064l.164,0q.088,0,.205-.015V0a2.354,2.354,0,0,1-.378.076,3.593,3.593,0,0,1-.425.023,1.145,1.145,0,0,1-1-.378,1.68,1.68,0,0,1-.264-.981V-5.414h-.85v-.861h.85Zm4.178,1.752v4.166a1.757,1.757,0,0,0,.152.785,1.063,1.063,0,0,0,1.049.563,1.482,1.482,0,0,0,1.5-.984A3.906,3.906,0,0,0-105-3.193V-6.275h1.055V0h-1l.012-.926a2.127,2.127,0,0,1-.51.6A2.243,2.243,0,0,1-106.9.17a1.89,1.89,0,0,1-1.828-.9,2.67,2.67,0,0,1-.264-1.283V-6.275Zm6.287,3.211a3.111,3.111,0,0,0,.428,1.688,1.5,1.5,0,0,0,1.371.68,1.444,1.444,0,0,0,1.2-.63,2.975,2.975,0,0,0,.472-1.808A2.673,2.673,0,0,0-98.64-4.9a1.517,1.517,0,0,0-1.2-.571,1.586,1.586,0,0,0-1.292.609A2.791,2.791,0,0,0-101.628-3.064Zm1.588-3.322a2.233,2.233,0,0,1,1.207.3,2.835,2.835,0,0,1,.639.615v-3.17h1.014V0h-.949V-.873A2.282,2.282,0,0,1-99-.035a2.5,2.5,0,0,1-1.154.258,2.337,2.337,0,0,1-1.816-.882,3.448,3.448,0,0,1-.768-2.347,4.051,4.051,0,0,1,.7-2.376A2.292,2.292,0,0,1-100.04-6.387Zm7.031-.029a2.862,2.862,0,0,1,1.295.313,2.388,2.388,0,0,1,.955.812,2.8,2.8,0,0,1,.422,1.107A7.245,7.245,0,0,1-90.243-2.8h-4.6a2.684,2.684,0,0,0,.451,1.532,1.511,1.511,0,0,0,1.307.577,1.689,1.689,0,0,0,1.318-.545,1.837,1.837,0,0,0,.4-.732h1.037A2.184,2.184,0,0,1-90.6-1.2a2.74,2.74,0,0,1-.519.694,2.458,2.458,0,0,1-1.189.633,3.613,3.613,0,0,1-.861.094A2.643,2.643,0,0,1-95.159-.63a3.317,3.317,0,0,1-.814-2.388,3.607,3.607,0,0,1,.82-2.455A2.706,2.706,0,0,1-93.009-6.416Zm1.682,2.777a2.732,2.732,0,0,0-.3-1.1A1.532,1.532,0,0,0-93.073-5.5a1.6,1.6,0,0,0-1.219.524,1.981,1.981,0,0,0-.521,1.333Zm2.379-2.637h1v.891A2.81,2.81,0,0,1-87-6.176a2.516,2.516,0,0,1,1.107-.24,1.826,1.826,0,0,1,1.8.932,3.308,3.308,0,0,1,.258,1.459V0h-1.072V-3.955a2.142,2.142,0,0,0-.17-.926,1.03,1.03,0,0,0-1.02-.586,2.076,2.076,0,0,0-.615.076,1.584,1.584,0,0,0-.762.516,1.552,1.552,0,0,0-.343.642,4.319,4.319,0,0,0-.079.946V0h-1.055Zm6.885-1.752H-81v1.752h1v.861h-1v4.1a.443.443,0,0,0,.223.439.946.946,0,0,0,.41.064l.164,0q.088,0,.205-.015V0a2.354,2.354,0,0,1-.378.076A3.593,3.593,0,0,1-80.8.1a1.145,1.145,0,0,1-1-.378,1.68,1.68,0,0,1-.264-.981V-5.414h-.85v-.861h.85Zm3.75,6.059a1.534,1.534,0,0,0,.264.809,1.657,1.657,0,0,0,1.383.51,2.039,2.039,0,0,0,1.031-.255.846.846,0,0,0,.445-.788.674.674,0,0,0-.357-.615,4.25,4.25,0,0,0-.9-.3l-.838-.211a4.087,4.087,0,0,1-1.184-.445,1.331,1.331,0,0,1-.68-1.184,1.808,1.808,0,0,1,.642-1.441,2.56,2.56,0,0,1,1.726-.551,2.4,2.4,0,0,1,2.045.832,1.806,1.806,0,0,1,.381,1.137h-1a1.22,1.22,0,0,0-.252-.65,1.607,1.607,0,0,0-1.26-.416,1.506,1.506,0,0,0-.905.229.716.716,0,0,0-.308.6.743.743,0,0,0,.4.656,2.429,2.429,0,0,0,.691.258l.7.17a5.391,5.391,0,0,1,1.523.533,1.412,1.412,0,0,1,.615,1.271,1.938,1.938,0,0,1-.636,1.447A2.706,2.706,0,0,1-76.72.24,2.6,2.6,0,0,1-78.7-.4a2.4,2.4,0,0,1-.624-1.573Zm5.6-4.137a.657.657,0,0,0,.489-.363,1.486,1.486,0,0,0,.167-.715q0-.041,0-.073a.4.4,0,0,0-.015-.073h-.639V-8.607h1.254V-7.43a2.46,2.46,0,0,1-.311,1.274,1.2,1.2,0,0,1-.943.6Zm5.742-2.5H-65.8V0h-1.178Zm2.93,2.332h1v.891a2.81,2.81,0,0,1,.943-.791,2.516,2.516,0,0,1,1.107-.24,1.826,1.826,0,0,1,1.8.932,3.308,3.308,0,0,1,.258,1.459V0H-60V-3.955a2.142,2.142,0,0,0-.17-.926,1.03,1.03,0,0,0-1.02-.586,2.076,2.076,0,0,0-.615.076,1.584,1.584,0,0,0-.762.516,1.552,1.552,0,0,0-.343.642,4.319,4.319,0,0,0-.079.946V0h-1.055Zm6.938-.955a1.881,1.881,0,0,1,.229-.961,1.615,1.615,0,0,1,1.424-.539q.1,0,.205.006t.24.018v.961q-.164-.012-.237-.015l-.138,0q-.48,0-.574.249a4.923,4.923,0,0,0-.094,1.269h1.043v.832h-1.055V0h-1.043V-5.414h-.873v-.832h.873ZM-51.548-.68a1.455,1.455,0,0,0,1.438-.794,3.955,3.955,0,0,0,.39-1.767A3.145,3.145,0,0,0-50-4.67a1.582,1.582,0,0,0-1.535-.867,1.514,1.514,0,0,0-1.406.738,3.422,3.422,0,0,0-.439,1.781,2.977,2.977,0,0,0,.439,1.67A1.548,1.548,0,0,0-51.548-.68Zm.041-5.777a2.842,2.842,0,0,1,2.051.809,3.158,3.158,0,0,1,.838,2.379,4.081,4.081,0,0,1-.738,2.508,2.671,2.671,0,0,1-2.291.99A2.586,2.586,0,0,1-53.7-.647,3.46,3.46,0,0,1-54.466-3a3.743,3.743,0,0,1,.8-2.52A2.694,2.694,0,0,1-51.507-6.457Zm4.172.182h1v1.084a2.4,2.4,0,0,1,.6-.771,1.565,1.565,0,0,1,1.107-.454q.029,0,.1.006l.24.023v1.113a1.576,1.576,0,0,0-.173-.023q-.079-.006-.173-.006a1.505,1.505,0,0,0-1.225.513,1.79,1.79,0,0,0-.428,1.181V0h-1.055Zm3.967,0h1.043v.891a3.506,3.506,0,0,1,.68-.674,2.044,2.044,0,0,1,1.184-.357,1.863,1.863,0,0,1,1.207.369,1.929,1.929,0,0,1,.469.621,2.28,2.28,0,0,1,.826-.747,2.3,2.3,0,0,1,1.066-.243,1.744,1.744,0,0,1,1.723.914,2.988,2.988,0,0,1,.246,1.324V0h-1.1V-4.359a1.015,1.015,0,0,0-.313-.861,1.241,1.241,0,0,0-.765-.234,1.518,1.518,0,0,0-1.069.416,1.827,1.827,0,0,0-.448,1.389V0h-1.072V-4.1a2.128,2.128,0,0,0-.152-.932.929.929,0,0,0-.9-.439A1.547,1.547,0,0,0-41.824-5a2.269,2.269,0,0,0-.489,1.676V0h-1.055Zm10.8,4.605a.869.869,0,0,0,.334.721,1.238,1.238,0,0,0,.791.264A2.4,2.4,0,0,0-30.36-.943a1.451,1.451,0,0,0,.879-1.4v-.85a1.8,1.8,0,0,1-.5.205,4.244,4.244,0,0,1-.6.117l-.639.082a2.443,2.443,0,0,0-.861.24A.936.936,0,0,0-32.563-1.67ZM-30.009-3.8a.573.573,0,0,0,.486-.3.927.927,0,0,0,.07-.4.857.857,0,0,0-.384-.782,2.059,2.059,0,0,0-1.1-.243,1.4,1.4,0,0,0-1.172.445,1.465,1.465,0,0,0-.252.732h-.984a1.812,1.812,0,0,1,.753-1.614,3.091,3.091,0,0,1,1.679-.454,3.416,3.416,0,0,1,1.8.422,1.431,1.431,0,0,1,.686,1.313v3.615a.463.463,0,0,0,.067.264.325.325,0,0,0,.284.1q.07,0,.158-.009t.188-.026V.029A2.937,2.937,0,0,1-28.1.117a2.74,2.74,0,0,1-.352.018.867.867,0,0,1-.791-.387,1.492,1.492,0,0,1-.182-.58,2.683,2.683,0,0,1-.926.732,2.864,2.864,0,0,1-1.33.311,1.978,1.978,0,0,1-1.427-.53,1.761,1.761,0,0,1-.554-1.327A1.709,1.709,0,0,1-33.12-3a2.593,2.593,0,0,1,1.43-.592Zm3.521-4.225h1.066v1.752h1v.861h-1v4.1a.443.443,0,0,0,.223.439.946.946,0,0,0,.41.064l.164,0q.088,0,.205-.015V0A2.354,2.354,0,0,1-24.8.076,3.593,3.593,0,0,1-25.222.1a1.145,1.145,0,0,1-1-.378,1.68,1.68,0,0,1-.264-.981V-5.414h-.85v-.861h.85Zm3.123,1.781h1.072V0h-1.072Zm0-2.361h1.072v1.2h-1.072ZM-18.208-.68a1.455,1.455,0,0,0,1.438-.794,3.955,3.955,0,0,0,.39-1.767,3.145,3.145,0,0,0-.281-1.43A1.582,1.582,0,0,0-18.2-5.537,1.514,1.514,0,0,0-19.6-4.8a3.422,3.422,0,0,0-.439,1.781,2.977,2.977,0,0,0,.439,1.67A1.548,1.548,0,0,0-18.208-.68Zm.041-5.777a2.842,2.842,0,0,1,2.051.809,3.158,3.158,0,0,1,.838,2.379,4.081,4.081,0,0,1-.738,2.508,2.671,2.671,0,0,1-2.291.99,2.586,2.586,0,0,1-2.057-.876A3.46,3.46,0,0,1-21.126-3a3.743,3.743,0,0,1,.8-2.52A2.694,2.694,0,0,1-18.167-6.457Zm4.143.182h1v.891a2.81,2.81,0,0,1,.943-.791,2.516,2.516,0,0,1,1.107-.24,1.826,1.826,0,0,1,1.8.932,3.308,3.308,0,0,1,.258,1.459V0H-9.981V-3.955a2.142,2.142,0,0,0-.17-.926,1.03,1.03,0,0,0-1.02-.586,2.076,2.076,0,0,0-.615.076,1.584,1.584,0,0,0-.762.516,1.552,1.552,0,0,0-.343.642,4.319,4.319,0,0,0-.079.946V0h-1.055Zm16.2-2.332v1.025h-2.9V0H-1.907V-7.582h-2.9V-8.607ZM4.386-6.416A2.862,2.862,0,0,1,5.681-6.1a2.388,2.388,0,0,1,.955.812,2.8,2.8,0,0,1,.422,1.107A7.245,7.245,0,0,1,7.151-2.8h-4.6A2.684,2.684,0,0,0,3-1.269,1.511,1.511,0,0,0,4.31-.691a1.689,1.689,0,0,0,1.318-.545,1.837,1.837,0,0,0,.4-.732H7.063a2.184,2.184,0,0,1-.272.771A2.74,2.74,0,0,1,6.272-.5,2.458,2.458,0,0,1,5.083.129a3.613,3.613,0,0,1-.861.094A2.643,2.643,0,0,1,2.235-.63a3.317,3.317,0,0,1-.814-2.388,3.607,3.607,0,0,1,.82-2.455A2.706,2.706,0,0,1,4.386-6.416ZM6.067-3.639a2.733,2.733,0,0,0-.3-1.1A1.532,1.532,0,0,0,4.321-5.5,1.6,1.6,0,0,0,3.1-4.972a1.981,1.981,0,0,0-.521,1.333Zm4.8-2.818a2.736,2.736,0,0,1,1.726.516,2.47,2.47,0,0,1,.8,1.775H12.366a1.893,1.893,0,0,0-.428-.964,1.351,1.351,0,0,0-1.072-.384,1.482,1.482,0,0,0-1.441.984,3.91,3.91,0,0,0-.281,1.576,2.966,2.966,0,0,0,.4,1.588A1.367,1.367,0,0,0,10.8-.721a1.371,1.371,0,0,0,1.04-.4,2.207,2.207,0,0,0,.53-1.1h1.025A2.752,2.752,0,0,1,12.513-.4a2.742,2.742,0,0,1-1.8.577,2.4,2.4,0,0,1-1.963-.9,3.443,3.443,0,0,1-.732-2.247,3.786,3.786,0,0,1,.8-2.572A2.594,2.594,0,0,1,10.866-6.457Zm3.58-2.18H15.5v3.211a3.045,3.045,0,0,1,.674-.668,2.273,2.273,0,0,1,1.271-.334,1.88,1.88,0,0,1,1.852.955,3.257,3.257,0,0,1,.264,1.447V0H18.478V-3.955A2.212,2.212,0,0,0,18.3-4.969a1.123,1.123,0,0,0-1.078-.516,1.8,1.8,0,0,0-1.189.451A2.169,2.169,0,0,0,15.5-3.328V0H14.446ZM21.12-6.275h1v.891a2.81,2.81,0,0,1,.943-.791,2.516,2.516,0,0,1,1.107-.24,1.826,1.826,0,0,1,1.8.932,3.308,3.308,0,0,1,.258,1.459V0H25.163V-3.955a2.142,2.142,0,0,0-.17-.926,1.03,1.03,0,0,0-1.02-.586,2.076,2.076,0,0,0-.615.076,1.584,1.584,0,0,0-.762.516,1.552,1.552,0,0,0-.343.642,4.319,4.319,0,0,0-.079.946V0H21.12Zm9.164,5.6a1.455,1.455,0,0,0,1.438-.794,3.955,3.955,0,0,0,.39-1.767,3.145,3.145,0,0,0-.281-1.43A1.582,1.582,0,0,0,30.3-5.537,1.514,1.514,0,0,0,28.89-4.8a3.422,3.422,0,0,0-.439,1.781,2.977,2.977,0,0,0,.439,1.67A1.548,1.548,0,0,0,30.284-.68Zm.041-5.777a2.842,2.842,0,0,1,2.051.809,3.158,3.158,0,0,1,.838,2.379,4.081,4.081,0,0,1-.738,2.508,2.671,2.671,0,0,1-2.291.99,2.586,2.586,0,0,1-2.057-.876A3.46,3.46,0,0,1,27.366-3a3.743,3.743,0,0,1,.8-2.52A2.694,2.694,0,0,1,30.325-6.457ZM34.5-8.607h1.055V0H34.5ZM39.624-.68a1.455,1.455,0,0,0,1.438-.794,3.955,3.955,0,0,0,.39-1.767,3.145,3.145,0,0,0-.281-1.43,1.582,1.582,0,0,0-1.535-.867,1.514,1.514,0,0,0-1.406.738,3.422,3.422,0,0,0-.439,1.781,2.977,2.977,0,0,0,.439,1.67A1.548,1.548,0,0,0,39.624-.68Zm.041-5.777a2.842,2.842,0,0,1,2.051.809,3.158,3.158,0,0,1,.838,2.379,4.081,4.081,0,0,1-.738,2.508,2.671,2.671,0,0,1-2.291.99,2.586,2.586,0,0,1-2.057-.876A3.46,3.46,0,0,1,36.706-3a3.743,3.743,0,0,1,.8-2.52A2.694,2.694,0,0,1,39.665-6.457Zm6.357.07a2.287,2.287,0,0,1,1.289.363,2.9,2.9,0,0,1,.609.6v-.791h.973V-.51a4.209,4.209,0,0,1-.352,1.887,2.524,2.524,0,0,1-2.479,1.277A3.04,3.04,0,0,1,44.358,2.2,1.771,1.771,0,0,1,43.585.779h1.072a1.193,1.193,0,0,0,.3.65,1.553,1.553,0,0,0,1.125.352A1.548,1.548,0,0,0,47.675.926a4.818,4.818,0,0,0,.205-1.8,2.069,2.069,0,0,1-.762.715A2.534,2.534,0,0,1,45.94.076a2.514,2.514,0,0,1-1.784-.724,3.183,3.183,0,0,1-.765-2.394A3.625,3.625,0,0,1,44.162-5.5,2.383,2.383,0,0,1,46.022-6.387Zm1.9,3.223a2.616,2.616,0,0,0-.48-1.729,1.539,1.539,0,0,0-1.225-.562,1.512,1.512,0,0,0-1.523,1.043,4.09,4.09,0,0,0-.217,1.459,2.59,2.59,0,0,0,.431,1.614,1.39,1.39,0,0,0,1.157.554,1.625,1.625,0,0,0,1.6-1.025A3.307,3.307,0,0,0,47.921-3.164ZM54.4-6.275h1.166q-.223.6-.99,2.754Q54-1.9,53.616-.885a17.826,17.826,0,0,1-1.289,2.93,1.473,1.473,0,0,1-1.289.527,2.529,2.529,0,0,1-.343-.018,2.708,2.708,0,0,1-.3-.064V1.529a3.638,3.638,0,0,0,.4.094,1.555,1.555,0,0,0,.217.018.759.759,0,0,0,.431-.1.892.892,0,0,0,.231-.237q.029-.047.211-.48t.264-.645l-2.32-6.457h1.2l1.682,5.109Zm9.182-2.566a3.527,3.527,0,0,1,2.537.861,3.042,3.042,0,0,1,1,1.957H65.985a2.366,2.366,0,0,0-.771-1.318,2.442,2.442,0,0,0-1.62-.486,2.6,2.6,0,0,0-2.054.894A4.073,4.073,0,0,0,60.759-4.2a3.979,3.979,0,0,0,.706,2.452,2.467,2.467,0,0,0,2.106.94,2.225,2.225,0,0,0,1.963-.99,3.766,3.766,0,0,0,.533-1.371H67.2A3.884,3.884,0,0,1,66.2-.885,3.586,3.586,0,0,1,63.431.223a3.65,3.65,0,0,1-2.52-.908,4.732,4.732,0,0,1-1.342-3.709,4.738,4.738,0,0,1,1.008-3.123A3.681,3.681,0,0,1,63.583-8.842ZM70.972-.68a1.455,1.455,0,0,0,1.438-.794A3.955,3.955,0,0,0,72.8-3.24a3.145,3.145,0,0,0-.281-1.43,1.582,1.582,0,0,0-1.535-.867,1.514,1.514,0,0,0-1.406.738,3.422,3.422,0,0,0-.439,1.781,2.977,2.977,0,0,0,.439,1.67A1.548,1.548,0,0,0,70.972-.68Zm.041-5.777a2.842,2.842,0,0,1,2.051.809A3.158,3.158,0,0,1,73.9-3.27a4.081,4.081,0,0,1-.738,2.508,2.671,2.671,0,0,1-2.291.99,2.586,2.586,0,0,1-2.057-.876A3.46,3.46,0,0,1,68.054-3a3.743,3.743,0,0,1,.8-2.52A2.694,2.694,0,0,1,71.013-6.457Zm4.143.182h1v.891a2.81,2.81,0,0,1,.943-.791,2.516,2.516,0,0,1,1.107-.24,1.826,1.826,0,0,1,1.8.932,3.308,3.308,0,0,1,.258,1.459V0H79.2V-3.955a2.142,2.142,0,0,0-.17-.926,1.03,1.03,0,0,0-1.02-.586,2.076,2.076,0,0,0-.615.076,1.584,1.584,0,0,0-.762.516,1.552,1.552,0,0,0-.343.642,4.319,4.319,0,0,0-.079.946V0H75.155Zm6.938-.955a1.881,1.881,0,0,1,.229-.961,1.615,1.615,0,0,1,1.424-.539q.1,0,.205.006t.24.018v.961q-.164-.012-.237-.015l-.138,0q-.48,0-.574.249a4.923,4.923,0,0,0-.094,1.269H84.19v.832H83.136V0H82.093V-5.414H81.22v-.832h.873Zm5.684.814a2.862,2.862,0,0,1,1.295.313,2.388,2.388,0,0,1,.955.812,2.8,2.8,0,0,1,.422,1.107A7.245,7.245,0,0,1,90.542-2.8h-4.6a2.684,2.684,0,0,0,.451,1.532A1.511,1.511,0,0,0,87.7-.691a1.689,1.689,0,0,0,1.318-.545,1.837,1.837,0,0,0,.4-.732h1.037a2.184,2.184,0,0,1-.272.771,2.74,2.74,0,0,1-.519.694,2.458,2.458,0,0,1-1.189.633,3.613,3.613,0,0,1-.861.094A2.643,2.643,0,0,1,85.626-.63a3.317,3.317,0,0,1-.814-2.388,3.607,3.607,0,0,1,.82-2.455A2.706,2.706,0,0,1,87.776-6.416Zm1.682,2.777a2.732,2.732,0,0,0-.3-1.1A1.532,1.532,0,0,0,87.712-5.5a1.6,1.6,0,0,0-1.219.524,1.981,1.981,0,0,0-.521,1.333Zm2.408-2.637h1v1.084a2.4,2.4,0,0,1,.6-.771,1.565,1.565,0,0,1,1.107-.454q.029,0,.1.006l.24.023v1.113a1.576,1.576,0,0,0-.173-.023q-.079-.006-.173-.006a1.505,1.505,0,0,0-1.225.513,1.79,1.79,0,0,0-.428,1.181V0H91.866Zm6.58-.141a2.862,2.862,0,0,1,1.295.313,2.388,2.388,0,0,1,.955.812,2.8,2.8,0,0,1,.422,1.107,7.245,7.245,0,0,1,.094,1.383h-4.6a2.684,2.684,0,0,0,.451,1.532,1.511,1.511,0,0,0,1.307.577,1.689,1.689,0,0,0,1.318-.545,1.837,1.837,0,0,0,.4-.732h1.037a2.184,2.184,0,0,1-.272.771,2.74,2.74,0,0,1-.519.694,2.458,2.458,0,0,1-1.189.633,3.613,3.613,0,0,1-.861.094A2.643,2.643,0,0,1,96.3-.63a3.317,3.317,0,0,1-.814-2.388,3.607,3.607,0,0,1,.82-2.455A2.706,2.706,0,0,1,98.446-6.416Zm1.682,2.777a2.732,2.732,0,0,0-.3-1.1A1.532,1.532,0,0,0,98.382-5.5a1.6,1.6,0,0,0-1.219.524,1.981,1.981,0,0,0-.521,1.333Zm2.379-2.637h1v.891a2.81,2.81,0,0,1,.943-.791,2.516,2.516,0,0,1,1.107-.24,1.826,1.826,0,0,1,1.8.932,3.308,3.308,0,0,1,.258,1.459V0H106.55V-3.955a2.142,2.142,0,0,0-.17-.926,1.03,1.03,0,0,0-1.02-.586,2.076,2.076,0,0,0-.615.076,1.584,1.584,0,0,0-.762.516,1.552,1.552,0,0,0-.343.642,4.319,4.319,0,0,0-.079.946V0h-1.055Zm9.094-.182a2.736,2.736,0,0,1,1.726.516,2.47,2.47,0,0,1,.8,1.775H113.1a1.893,1.893,0,0,0-.428-.964,1.351,1.351,0,0,0-1.072-.384,1.482,1.482,0,0,0-1.441.984,3.91,3.91,0,0,0-.281,1.576,2.966,2.966,0,0,0,.4,1.588,1.367,1.367,0,0,0,1.254.645,1.371,1.371,0,0,0,1.04-.4,2.207,2.207,0,0,0,.53-1.1h1.025A2.752,2.752,0,0,1,113.247-.4a2.742,2.742,0,0,1-1.8.577,2.4,2.4,0,0,1-1.963-.9,3.443,3.443,0,0,1-.732-2.247,3.786,3.786,0,0,1,.8-2.572A2.594,2.594,0,0,1,111.6-6.457Zm6.193.041a2.862,2.862,0,0,1,1.295.313,2.388,2.388,0,0,1,.955.812,2.8,2.8,0,0,1,.422,1.107A7.245,7.245,0,0,1,120.56-2.8h-4.6a2.684,2.684,0,0,0,.451,1.532,1.511,1.511,0,0,0,1.307.577,1.689,1.689,0,0,0,1.318-.545,1.837,1.837,0,0,0,.4-.732h1.037a2.184,2.184,0,0,1-.272.771,2.74,2.74,0,0,1-.519.694,2.458,2.458,0,0,1-1.189.633,3.613,3.613,0,0,1-.861.094,2.643,2.643,0,0,1-1.986-.853,3.317,3.317,0,0,1-.814-2.388,3.607,3.607,0,0,1,.82-2.455A2.706,2.706,0,0,1,117.794-6.416Zm1.682,2.777a2.732,2.732,0,0,0-.3-1.1,1.532,1.532,0,0,0-1.447-.762,1.6,1.6,0,0,0-1.219.524,1.981,1.981,0,0,0-.521,1.333Z" transform="translate(300.5 1048.817)"/></g></svg>