<svg xmlns="http://www.w3.org/2000/svg" width="113" height="39" viewBox="0 0 113 39"><defs><style>.a{fill:#77b55a;}.b,.d{fill:none;}.b{stroke:#77b55a;stroke-width:2px;}.c{stroke:none;}</style></defs><g transform="translate(-451 -675)"><g transform="translate(8 -32)"><g transform="translate(452.96 718.522)"><path class="a" d="M255.379,317.108a12.248,12.248,0,0,1-.281,1.459q-1.31,6.2-2.628,12.4a2.186,2.186,0,0,1-.233.688.77.77,0,0,1-.909.387,1.791,1.791,0,0,1-.673-.325c-1.322-.982-2.65-1.956-3.969-2.943a.257.257,0,0,0-.406.029c-.65.646-1.313,1.28-1.966,1.924a1.151,1.151,0,0,1-.886.38.461.461,0,0,1-.48-.358c-.406-1.274-.823-2.546-1.236-3.818-.14-.432-.288-.861-.419-1.3a.378.378,0,0,0-.284-.284c-1.294-.4-2.586-.8-3.878-1.208a2.038,2.038,0,0,1-.493-.2.469.469,0,0,1-.078-.836,2.342,2.342,0,0,1,.76-.426l5.287-2.041q5.707-2.2,11.416-4.4l.091-.036C254.829,315.928,255.373,316.3,255.379,317.108Zm-11.94,12.779a.111.111,0,0,0,.066-.117c.087-.928.177-1.857.253-2.786a.778.778,0,0,1,.27-.564q3.722-3.342,7.43-6.7c.156-.141.314-.281.467-.426.063-.06.146-.129.1-.228s-.162-.1-.258-.088a1.23,1.23,0,0,0-.511.215q-4.579,2.889-9.161,5.773a.281.281,0,0,0-.136.395c.379,1.13.745,2.264,1.115,3.4l.367,1.125Z" transform="translate(-236.339 -316.109)"/></g><path class="a" d="M15.488,22.04a7.014,7.014,0,0,0,3.52-.88l-.528-1.312a6.021,6.021,0,0,1-2.8.736,5.021,5.021,0,0,1-5.344-5.36,6.5,6.5,0,0,1,6.224-6.8c3.488,0,4.992,2.256,4.992,4.96,0,2.08-1.152,3.392-2.256,3.392-.864,0-1.152-.544-.864-1.712l.784-3.9H17.76l-.256.752h-.032a1.453,1.453,0,0,0-1.392-.9c-2.08,0-3.616,2.256-3.616,4.384,0,1.664.96,2.688,2.336,2.688a3.023,3.023,0,0,0,2.192-1.216h.032a1.873,1.873,0,0,0,2.032,1.376c1.84,0,4-1.664,4-4.944a5.971,5.971,0,0,0-6.3-6.336,7.965,7.965,0,0,0-8.016,8.32C8.736,19.816,11.872,22.04,15.488,22.04ZM15.3,16.584c-.624,0-1.056-.416-1.056-1.312,0-1.168.736-2.72,1.9-2.72a1.01,1.01,0,0,1,.944.592l-.464,2.56C16.112,16.344,15.712,16.584,15.3,16.584ZM27.76,19h2.368V9.128h3.36V7.144H24.432V9.128H27.76Zm7.456,0h2.352V10.04H35.216ZM36.4,8.6a1.291,1.291,0,1,0-1.376-1.3A1.261,1.261,0,0,0,36.4,8.6Zm2.64,12.88h8.64V20.1H39.04ZM50.64,19h2.688l.912-3.9c.192-.832.32-1.664.5-2.608h.08c.176.944.32,1.76.512,2.608l.944,3.9H59.04l2.208-8.96H59.072L58.1,14.456c-.16.88-.288,1.728-.448,2.624h-.08c-.192-.9-.352-1.744-.56-2.624l-1.12-4.416h-2.08L52.72,14.456c-.224.864-.384,1.728-.56,2.624H52.1c-.16-.9-.272-1.744-.448-2.624l-.976-4.416H48.32Zm16.816.224c1.968,0,3.808-1.776,3.808-4.864,0-2.736-1.328-4.544-3.536-4.544a3.823,3.823,0,0,0-2.48,1.072l.064-1.44V6.232H62.96V19H64.8l.208-.944h.064A3.423,3.423,0,0,0,67.456,19.224Zm-.528-1.936a2.441,2.441,0,0,1-1.616-.672V12.68a2.468,2.468,0,0,1,1.76-.928c1.232,0,1.776.944,1.776,2.656C68.848,16.36,68.016,17.288,66.928,17.288Z" transform="translate(472 713)"/></g><g class="b" transform="translate(451 675)"><rect class="c" width="113" height="39" rx="7"/><rect class="d" x="1" y="1" width="111" height="37" rx="6"/></g></g></svg>