<svg xmlns="http://www.w3.org/2000/svg" width="19.04" height="15.957" viewBox="0 0 19.04 15.957"><defs><style>.a{fill:#77b55a;}</style></defs><path class="a" d="M255.379,317.108a12.248,12.248,0,0,1-.281,1.459q-1.31,6.2-2.628,12.4a2.186,2.186,0,0,1-.233.688.77.77,0,0,1-.909.387,1.791,1.791,0,0,1-.673-.325c-1.322-.982-2.65-1.956-3.969-2.943a.257.257,0,0,0-.406.029c-.65.646-1.313,1.28-1.966,1.924a1.151,1.151,0,0,1-.886.38.461.461,0,0,1-.48-.358c-.406-1.274-.823-2.546-1.236-3.818-.14-.432-.288-.861-.419-1.3a.378.378,0,0,0-.284-.284c-1.294-.4-2.586-.8-3.878-1.208a2.038,2.038,0,0,1-.493-.2.469.469,0,0,1-.078-.836,2.342,2.342,0,0,1,.76-.426l5.287-2.041q5.707-2.2,11.416-4.4l.091-.036C254.829,315.928,255.373,316.3,255.379,317.108Zm-11.94,12.779a.111.111,0,0,0,.066-.117c.087-.928.177-1.857.253-2.786a.778.778,0,0,1,.27-.564q3.722-3.342,7.43-6.7c.156-.141.314-.281.467-.426.063-.06.146-.129.1-.228s-.162-.1-.258-.088a1.23,1.23,0,0,0-.511.215q-4.579,2.889-9.161,5.773a.281.281,0,0,0-.136.395c.379,1.13.745,2.264,1.115,3.4l.367,1.125Z" transform="translate(-236.339 -316.109)"/></svg>